<?xml version="1.0" encoding="utf-8"?>
<!-- Generator: Adobe Illustrator 27.5.0, SVG Export Plug-In . SVG Version: 6.00 Build 0)  -->
<svg version="1.1" id="Layer_1" xmlns="http://www.w3.org/2000/svg" xmlns:xlink="http://www.w3.org/1999/xlink" x="0px" y="0px"
	 viewBox="0 0 309.274 282.945" style="enable-background:new 0 0 309.274 282.945;" xml:space="preserve">
<g>
	<g>
		<path d="M274.085,123.143c-2.976-11.404-7.057-22.556-11.228-33.537c-2.789-7.34-5.713-14.627-8.475-21.98
			c-0.385-1.024-0.791-2.045-1.191-3.066c-2.01-1.381-3.938-2.896-5.791-4.482c-7.007-4.258-13.768-8.834-21.1-12.621
			c-9.2-4.752-18.252-9.584-27.888-13.422c-13.671-5.445-28.599-9.875-43.546-11.748c0.018-0.005,0.036-0.008,0.055-0.012
			c-0.365-0.047-0.73-0.093-1.095-0.139c-3.302,0.229-6.676,0.841-10.009,0.803c-0.162,0.051-0.324,0.094-0.486,0.146
			c-0.779,0.246-1.561,0.488-2.342,0.728c-0.816,0.16-1.629,0.335-2.434,0.546c-2.658,0.699-5.27,1.576-7.85,2.535
			c-2.545,0.777-5.08,1.589-7.596,2.486c-2.974,1.061-5.942,2.295-8.652,3.926c-0.384,0.23-0.764,0.508-1.143,0.81
			c-0.785,0.369-1.574,0.735-2.347,1.129c-1.886,0.957-3.677,1.976-5.506,3.016c-1.637,0.928-2.372,2.989-3.39,4.45
			C90.282,59.617,80.513,77.49,72.122,96.288c-4.256,9.536-8.756,18.917-12.242,28.776c-0.881,2.492-1.629,5.028-2.337,7.573
			c-0.563,2.023-1.343,3.656-1.258,5.78c0.059,1.488,0.778,2.899,1.353,4.242c1.242,2.903,2.686,5.693,3.82,8.65
			c1.725,4.49,3.205,8.773,5.467,13.022c2.499,4.694,5.213,9.275,7.684,13.982c2.158,4.109,4.158,8.031,6.895,11.795
			c2.473,3.402,4.197,6.496,7.715,8.92c2.375,1.636,4.496,3.618,6.746,5.42c2.568,2.053,5.464,3.684,8.205,5.493
			c5.732,3.782,11.178,7.83,16.553,12.105c9.818,7.813,20.291,14.984,30.879,21.764c1.907,0.524,3.748,1.369,5.475,2.246
			c0.604,0.307,1.201,0.625,1.793,0.95c0.756-0.188,1.49-0.388,2.182-0.62c4.195-1.416,8.299-3.123,12.441-4.688
			c8.129-3.068,16.268-6.092,24.266-9.48c3.873-1.643,7.879-2.959,11.689-4.729c3.83-1.778,7.668-3.577,11.564-5.2
			c3.805-1.585,7.596-3.186,11.318-4.957c3.862-1.835,7.355-4.249,11.131-6.212c2.633-1.367,5.592-2.651,7.125-5.359
			c1.693-2.99,2.536-6.691,3.563-9.957c2.76-8.782,5.019-17.742,7.746-26.544c2.627-8.474,5.528-16.849,8.408-25.239
			c0.74-2.158,1.463-4.403,2.207-6.672c0.787-2.829,1.851-5.588,2.678-8.41C274.676,127.024,274.271,125.094,274.085,123.143z"/>
		<path style="fill:#5B5049;" d="M250.313,66.361c0.204-0.021,0.383-0.127,0.527-0.278c0.281,0.917,0.561,1.835,0.848,2.751
			c2.357,7.533,5.034,14.904,7.721,22.318c2.664,7.352,4.89,14.86,7.6,22.195c1.828,4.949,3.333,10.103,5.478,14.95
			c-0.898-0.755-1.835-1.661-2.523-2.146c-2.116-1.492-3.747-4.032-5.286-6.087c-2.906-3.877-5.59-7.886-8.635-11.664
			c-5.499-6.824-11.995-12.737-17.6-19.438c1.682-3.689,3.451-7.338,5.311-10.943c1.163-2.254,2.359-4.506,3.657-6.686
			C247.692,70.861,249.909,66.402,250.313,66.361z"/>
		<path style="opacity:0.4;fill:#6B5E56;" d="M250.313,66.361c0.204-0.021,0.383-0.127,0.527-0.278
			c0.281,0.917,0.561,1.835,0.848,2.751c2.357,7.533,5.034,14.904,7.721,22.318c2.664,7.352,4.89,14.86,7.6,22.195
			c1.828,4.949,3.333,10.103,5.478,14.95c-0.898-0.755-1.835-1.661-2.523-2.146c-2.116-1.492-3.747-4.032-5.286-6.087
			c-2.906-3.877-5.59-7.886-8.635-11.664c-5.499-6.824-11.995-12.737-17.6-19.438c1.682-3.689,3.451-7.338,5.311-10.943
			c1.163-2.254,2.359-4.506,3.657-6.686C247.692,70.861,249.909,66.402,250.313,66.361z"/>
		<path style="fill:#6B5E56;" d="M224.681,50.621c8.518,4.475,16.434,10.1,25.225,14.027c-1.898,0.662-3.559,4.285-4.4,5.554
			c-3.111,4.683-5.488,9.935-7.875,15.014c-3.477,7.394-6.652,14.942-9.756,22.513c-0.453-3.507-0.75-7.051-1.236-10.546
			c-0.771-5.541-2.146-11.017-2.936-16.572c-0.921-6.46-1.179-13.014-1.968-19.495c-0.518-4.271-0.95-8.935-2.152-13.186
			C221.278,48.827,222.977,49.727,224.681,50.621z"/>
		<path style="fill:#807369;" d="M167.662,27.123c9.986,2.608,19.656,6.055,29.23,9.885c7.624,3.049,14.857,6.789,22.087,10.604
			c1.077,4.859,1.263,10.204,1.741,15.05c0.605,6.117,0.908,12.268,1.639,18.37c0.633,5.308,1.656,10.536,2.656,15.778
			c0.778,4.086,1.002,8.269,1.563,12.397c-8.065-0.839-16.159-1.606-24.089-3.444c-0.698-0.161-1.403-0.233-2.11-0.244
			c-0.548-0.83-1.097-1.695-1.172-1.814c-1.111-1.746-2.376-3.395-3.607-5.057c-2.504-3.385-4.863-6.771-7.129-10.32
			c-4.698-7.355-9.51-14.628-13.832-22.215c-4.082-7.163-8.296-14.406-11.981-21.778c-3.329-6.657-7.075-13.46-9.415-20.532
			c-0.023-0.071-0.063-0.115-0.099-0.168C158.011,24.635,162.837,25.863,167.662,27.123z"/>
		<path style="fill:#6B5E56;" d="M199.804,179.787c-0.002-0.002-0.006-0.005-0.006-0.005c-0.008-0.048-0.014-0.096-0.021-0.158
			c-0.007-0.071-0.106-0.06-0.114,0.005c-0.004,0.023-0.008,0.045-0.01,0.068c-0.768-0.395-1.646-0.594-2.729-0.72
			c-3.826-0.447-7.645-0.567-11.51-0.505c-7.597,0.122-15.188,0.488-22.765,1.002c-1.869-4.2-4.686-7.825-7.206-11.654
			c-3.051-4.636-6.152-9.205-9.412-13.697c-3.385-4.664-6.787-9.283-9.951-14.105c-1.332-2.03-2.676-3.902-4.281-5.711
			c-0.886-0.997-1.883-2.224-2.937-3.268c0.163-0.113,0.33-0.225,0.511-0.313c1.439-0.718,3.145-1.033,4.647-1.657
			c0.913-0.377,1.833-0.733,2.757-1.078c-1.869,0.975-3.766,1.796-5.664,2.089c-0.068,0.01-0.082,0.124,0,0.118
			c2.944-0.22,5.836-1.955,8.525-3.23c6.953-2.394,14.07-4.285,20.609-7.785c5.9-2.01,11.835-3.938,17.74-5.921
			c4.051-1.36,8.263-2.579,12.414-3.601c4.314-1.063,8.025-2.297,12.488-1.508c7.532,1.335,15.771,3.569,23.496,3.211
			c-0.867,2.129-1.732,4.26-2.598,6.386c-4.514,11.089-8.844,22.246-13.104,33.434c-2.07,5.438-4.37,10.774-6.587,16.152
			c-1.016,2.467-1.995,4.938-2.898,7.447l-1.113,3.102c-0.191,0.359-0.31,0.735-0.354,1.127
			C199.768,179.371,199.791,179.624,199.804,179.787z"/>
		<path style="fill:#6B5E56;" d="M199.804,179.787c-0.002-0.002-0.006-0.005-0.006-0.005c-0.008-0.048-0.014-0.096-0.021-0.158
			c-0.007-0.071-0.106-0.06-0.114,0.005c-0.004,0.023-0.008,0.045-0.01,0.068c-0.768-0.395-1.646-0.594-2.729-0.72
			c-3.826-0.447-7.645-0.567-11.51-0.505c-7.597,0.122-15.188,0.488-22.765,1.002c-1.869-4.2-4.686-7.825-7.206-11.654
			c-3.051-4.636-6.152-9.205-9.412-13.697c-3.385-4.664-6.787-9.283-9.951-14.105c-1.332-2.03-2.676-3.902-4.281-5.711
			c-0.886-0.997-1.883-2.224-2.937-3.268c0.163-0.113,0.33-0.225,0.511-0.313c1.439-0.718,3.145-1.033,4.647-1.657
			c0.913-0.377,1.833-0.733,2.757-1.078c-1.869,0.975-3.766,1.796-5.664,2.089c-0.068,0.01-0.082,0.124,0,0.118
			c2.944-0.22,5.836-1.955,8.525-3.23c6.953-2.394,14.07-4.285,20.609-7.785c5.9-2.01,11.835-3.938,17.74-5.921
			c4.051-1.36,8.263-2.579,12.414-3.601c4.314-1.063,8.025-2.297,12.488-1.508c7.532,1.335,15.771,3.569,23.496,3.211
			c-0.867,2.129-1.732,4.26-2.598,6.386c-4.514,11.089-8.844,22.246-13.104,33.434c-2.07,5.438-4.37,10.774-6.587,16.152
			c-1.016,2.467-1.995,4.938-2.898,7.447l-1.113,3.102c-0.191,0.359-0.31,0.735-0.354,1.127
			C199.768,179.371,199.791,179.624,199.804,179.787z"/>
		<path style="fill:#807369;" d="M126.824,129.273c-1.44-2.191-2.21-4.875-3.114-7.27c-1.291-3.428-3.102-6.647-4.139-10.166
			c-0.486-1.654-0.938-3.305-1.367-4.953c1.259,0.561,2.438,1.246,3.729,1.977c2.973,1.685,6.055,3.163,8.984,4.927
			c2.269,1.365,4.632,2.586,6.951,3.861c2.665,1.462,5.219,3.217,7.953,4.545c-4.545,1.352-9.063,2.783-13.471,4.633
			C130.214,127.726,128.362,128.086,126.824,129.273z"/>
		<path style="opacity:0.6;fill:#807369;" d="M126.824,129.273c-1.44-2.191-2.21-4.875-3.114-7.27
			c-1.291-3.428-3.102-6.647-4.139-10.166c-0.486-1.654-0.938-3.305-1.367-4.953c1.259,0.561,2.438,1.246,3.729,1.977
			c2.973,1.685,6.055,3.163,8.984,4.927c2.269,1.365,4.632,2.586,6.951,3.861c2.665,1.462,5.219,3.217,7.953,4.545
			c-4.545,1.352-9.063,2.783-13.471,4.633C130.214,127.726,128.362,128.086,126.824,129.273z"/>
		<path style="fill:#807369;" d="M106.196,41.078c1.174-1.552,3.77-2.427,5.426-3.378c4.189-2.405,8.637-4.381,13.001-6.448
			c2.8-1.326,5.63-2.578,8.503-3.732c2.65-0.723,5.311-1.402,7.949-2.071c3.248-0.825,6.499-1.567,9.754-2.284
			c0.516,0.096,1.027,0.211,1.539,0.313c-0.341,0.164-0.615,0.543-0.485,0.938c2.146,6.442,5.526,12.412,8.468,18.521
			c3.766,7.822,8.309,15.331,12.52,22.926c4.43,7.994,9.471,15.672,14.529,23.279c2.329,3.504,4.732,6.855,7.309,10.183
			c1.407,1.817,2.786,4.284,4.401,6.239c-2.154,0.18-4.309,0.844-6.341,1.414c-4.242,1.188-8.478,2.344-12.698,3.609
			c-4.03,1.208-7.904,2.918-11.826,4.434c-3.018,1.166-6.119,2.096-9.178,3.152c-4.171,1.398-8.387,2.587-12.583,3.828
			c-1.916-1.447-3.69-2.99-5.772-4.215c-3.316-1.954-6.68-3.84-9.979-5.824c-2.976-1.791-6.15-3.219-9.127-5.012
			c-1.267-0.762-2.506-1.396-3.857-1.836c-1.408-5.619-2.547-11.244-3.622-17.021c-1.519-8.162-3.63-16.212-5.179-24.376
			c-0.797-4.199-1.576-8.356-2.57-12.515c-0.671-2.807-0.789-5.721-1.244-8.553C105.476,42.106,105.823,41.574,106.196,41.078z"/>
		<path style="fill:#8E8179;" d="M86.066,72.334c5.454-9.16,11.292-18.119,17.313-26.914c0.365-0.534,0.716-1.1,1.065-1.668
			c0.119,2.693,0.029,5.422,0.482,8.1c0.716,4.227,1.393,8.475,2.188,12.687c0.442,2.339,0.916,4.669,1.403,6.997
			c-8.598,7.076-16.45,15.095-24.14,23.133c-4.053,4.235-8.307,8.272-12.227,12.633c-1.619,1.799-2.929,3.838-4.547,5.627
			c-0.955,1.055-1.92,2.083-2.835,3.154c2.263-5.334,4.774-10.572,7.251-15.775C76.535,90.828,80.683,81.379,86.066,72.334z"/>
		<path style="fill:#807369;" d="M86.235,194.582c-1.59-1.958-2.811-4.289-4.234-6.369c-2.643-3.86-4.284-7.959-6.166-12.223
			c-2.191-4.965-4.51-9.885-6.863-14.775c-2.18-4.529-3.645-9.326-5.698-13.912c-0.982-2.195-2.136-4.313-3.286-6.422
			c-1.775-3.253-1.681-5.871-0.709-9.401c1.135-4.124,2.557-8.161,4.146-12.138c3.34-3.18,6.072-6.836,9.044-10.332
			c3.756-4.415,7.993-8.414,12.024-12.572c4.326-4.463,8.778-8.799,13.052-13.314c3.598-3.803,7.52-7.285,11.07-11.129
			c1.271,6.061,2.627,12.102,3.783,18.185c0.77,4.051,1.4,8.125,2.292,12.151c0.212,0.963,0.462,1.917,0.728,2.865
			c-0.146,0.316-0.123,0.68,0.227,0.785c0.864,2.954,1.897,5.867,2.742,8.821c0.966,3.378,3.129,6.643,4.361,9.964
			c0.739,1.99,1.516,4.078,2.873,5.717c-0.199,0.256-0.393,0.529-0.576,0.842c-2.739,4.609-7.263,8.369-10.518,12.645
			c-11.865,15.586-22.543,31.939-27.953,50.99C86.46,194.836,86.345,194.716,86.235,194.582z"/>
		<path style="fill:#6B5E56;" d="M156.369,243.733c-0.142,0.05-0.289,0.099-0.429,0.148c-8.254-6.712-17.381-12.3-26.028-18.488
			c-8.755-6.267-16.935-13.09-26.046-18.882c-4.273-2.717-8.435-5.567-12.696-8.305c-1.479-0.95-2.909-1.634-4.144-2.789
			c3.734-8.774,7.804-17.313,12.405-25.68c4.81-8.748,11.104-16.201,17-24.174c2.675-3.614,5.776-6.902,8.787-10.234
			c1.043-1.152,1.843-2.693,2.989-3.768c0.129,0.331,0.264,0.638,0.38,0.773c0.573,0.671,1.137,1.343,1.687,2.034
			c1.688,2.129,2.976,4.413,4.362,6.745c2.751,4.632,5.743,9.125,9.05,13.379c3.133,4.026,6.027,8.315,8.803,12.592
			c2.996,4.616,6.293,8.907,8.623,13.924c1.126,2.427,0.623,4.509,0.582,7.045c-0.045,2.876-0.137,5.747-0.376,8.614
			c-0.522,6.301-1.306,12.509-2.415,18.736c-0.902,5.058-1.935,10.073-2.34,15.195c-0.196,2.506-0.455,5.004-0.64,7.509
			C155.782,240.018,156.108,241.867,156.369,243.733z"/>
		<path style="opacity:0.3;fill:#807369;" d="M156.369,243.733c-0.142,0.05-0.289,0.099-0.429,0.148
			c-8.254-6.712-17.381-12.3-26.028-18.488c-8.755-6.267-16.935-13.09-26.046-18.882c-4.273-2.717-8.435-5.567-12.696-8.305
			c-1.479-0.95-2.909-1.634-4.144-2.789c3.734-8.774,7.804-17.313,12.405-25.68c4.81-8.748,11.104-16.201,17-24.174
			c2.675-3.614,5.776-6.902,8.787-10.234c1.043-1.152,1.843-2.693,2.989-3.768c0.129,0.331,0.264,0.638,0.38,0.773
			c0.573,0.671,1.137,1.343,1.687,2.034c1.688,2.129,2.976,4.413,4.362,6.745c2.751,4.632,5.743,9.125,9.05,13.379
			c3.133,4.026,6.027,8.315,8.803,12.592c2.996,4.616,6.293,8.907,8.623,13.924c1.126,2.427,0.623,4.509,0.582,7.045
			c-0.045,2.876-0.137,5.747-0.376,8.614c-0.522,6.301-1.306,12.509-2.415,18.736c-0.902,5.058-1.935,10.073-2.34,15.195
			c-0.196,2.506-0.455,5.004-0.64,7.509C155.782,240.018,156.108,241.867,156.369,243.733z"/>
		<path style="fill:#5B5049;" d="M194.366,229.326c-7.994,3.422-16.228,6.342-24.369,9.404c-4.108,1.545-8.182,3.143-12.339,4.556
			c-0.167-1.806-0.396-3.594-0.361-5.429c0.048-2.453,0.489-5.086,0.746-7.527c0.661-6.256,2.06-12.38,3.196-18.563
			c1.014-5.52,1.541-11.035,2.018-16.62c0.247-2.89,0.265-5.802,0.316-8.7c0.037-2.02,0.45-3.451-0.281-5.422
			c-0.023-0.061-0.051-0.119-0.076-0.18c1.104,0.062,3.029-0.013,3.354-0.01c2.099,0.016,4.194-0.007,6.293,0.062
			c3.985,0.13,7.96,0.023,11.945,0c3.755-0.021,7.776-0.065,11.467,0.672c1.804,0.36,2.739,0.463,3.823,1.916
			c0.955,1.282,1.656,2.921,2.504,4.292c3.893,6.303,8.377,12.368,12.726,18.362c2.175,2.998,4.231,6.081,6.543,8.976
			c0.494,0.618,0.907,1.322,1.384,1.877C213.735,221.322,204.007,225.199,194.366,229.326z"/>
		<path style="opacity:0.6;fill:#6B5E56;" d="M194.366,229.326c-7.994,3.422-16.228,6.342-24.369,9.404
			c-4.108,1.545-8.182,3.143-12.339,4.556c-0.167-1.806-0.396-3.594-0.361-5.429c0.048-2.453,0.489-5.086,0.746-7.527
			c0.661-6.256,2.06-12.38,3.196-18.563c1.014-5.52,1.541-11.035,2.018-16.62c0.247-2.89,0.265-5.802,0.316-8.7
			c0.037-2.02,0.45-3.451-0.281-5.422c-0.023-0.061-0.051-0.119-0.076-0.18c1.104,0.062,3.029-0.013,3.354-0.01
			c2.099,0.016,4.194-0.007,6.293,0.062c3.985,0.13,7.96,0.023,11.945,0c3.755-0.021,7.776-0.065,11.467,0.672
			c1.804,0.36,2.739,0.463,3.823,1.916c0.955,1.282,1.656,2.921,2.504,4.292c3.893,6.303,8.377,12.368,12.726,18.362
			c2.175,2.998,4.231,6.081,6.543,8.976c0.494,0.618,0.907,1.322,1.384,1.877C213.735,221.322,204.007,225.199,194.366,229.326z"/>
		<path style="fill:#5B5049;" d="M240.767,208.184c-5.172,2.926-10.473,5.563-15.847,8.045c-1.967-1.634-3.636-5.472-4.828-7.233
			c-2.164-3.197-4.521-6.258-6.698-9.445c-2.107-3.087-4.229-6.165-6.362-9.235c-2.007-2.89-3.523-6.126-5.529-8.978
			c-0.136-0.193-0.276-0.368-0.419-0.531c1.627,0.251,4.396,1.65,5.023,1.867c2.764,0.953,5.521,1.898,8.227,3.007
			c4.887,2,9.581,4.481,14.271,6.896c2.519,1.297,5.003,2.58,7.366,4.152c2.17,1.443,4.016,3.422,6.054,5.046
			c1.05,0.837,2.788,2.457,4.48,3.145C245.087,206.414,242.499,207.204,240.767,208.184z"/>
		<path style="opacity:0.5;fill:#6B5E56;" d="M240.767,208.184c-5.172,2.926-10.473,5.563-15.847,8.045
			c-1.967-1.634-3.636-5.472-4.828-7.233c-2.164-3.197-4.521-6.258-6.698-9.445c-2.107-3.087-4.229-6.165-6.362-9.235
			c-2.007-2.89-3.523-6.126-5.529-8.978c-0.136-0.193-0.276-0.368-0.419-0.531c1.627,0.251,4.396,1.65,5.023,1.867
			c2.764,0.953,5.521,1.898,8.227,3.007c4.887,2,9.581,4.481,14.271,6.896c2.519,1.297,5.003,2.58,7.366,4.152
			c2.17,1.443,4.016,3.422,6.054,5.046c1.05,0.837,2.788,2.457,4.48,3.145C245.087,206.414,242.499,207.204,240.767,208.184z"/>
		<path style="opacity:0.5;fill:#6B5E56;" d="M240.767,208.184c-5.172,2.926-10.473,5.563-15.847,8.045
			c-1.967-1.634-3.636-5.472-4.828-7.233c-2.164-3.197-4.521-6.258-6.698-9.445c-2.107-3.087-4.229-6.165-6.362-9.235
			c-2.007-2.89-3.523-6.126-5.529-8.978c-0.136-0.193-0.276-0.368-0.419-0.531c1.627,0.251,4.396,1.65,5.023,1.867
			c2.764,0.953,5.521,1.898,8.227,3.007c4.887,2,9.581,4.481,14.271,6.896c2.519,1.297,5.003,2.58,7.366,4.152
			c2.17,1.443,4.016,3.422,6.054,5.046c1.05,0.837,2.788,2.457,4.48,3.145C245.087,206.414,242.499,207.204,240.767,208.184z"/>
		<path style="fill:#5B5049;" d="M270.007,137.107c-3.32,7.993-6.395,16.076-9.285,24.234c-2.984,8.42-5.51,17.014-8.115,25.557
			c-1.218,3.996-2.172,8.049-3.512,12.015c-0.451,1.336-0.82,2.886-1.438,4.232c-1.251-0.708-2.53-1.975-3.33-2.617
			c-1.636-1.314-3.184-2.729-4.778-4.091c-3.885-3.316-8.77-5.34-13.365-7.461c-4.835-2.23-9.632-4.336-14.725-5.923
			c-3.381-1.053-7.526-3.028-11.211-3.006c-0.045-0.032-0.097-0.054-0.143-0.084c2.092-3.108,3.404-7.435,4.928-10.813
			c2.393-5.311,4.83-10.59,6.973-16.008c4.079-10.31,8.188-20.611,12.354-30.887c4.128-10.178,8.353-20.323,12.775-30.377
			c0.344-0.781,0.696-1.559,1.049-2.338c2.079,3.033,4.543,5.742,7.031,8.467c3.882,4.25,7.467,8.799,10.918,13.398
			c3.135,4.18,5.963,8.598,9.234,12.67c1.784,2.222,4.637,5.482,7.504,6.507C271.869,132.733,270.921,134.906,270.007,137.107z"/>
		<path style="opacity:0.3;fill:#807369;" d="M270.007,137.107c-3.32,7.993-6.395,16.076-9.285,24.234
			c-2.984,8.42-5.51,17.014-8.115,25.557c-1.218,3.996-2.172,8.049-3.512,12.015c-0.451,1.336-0.82,2.886-1.438,4.232
			c-1.251-0.708-2.53-1.975-3.33-2.617c-1.636-1.314-3.184-2.729-4.778-4.091c-3.885-3.316-8.77-5.34-13.365-7.461
			c-4.835-2.23-9.632-4.336-14.725-5.923c-3.381-1.053-7.526-3.028-11.211-3.006c-0.045-0.032-0.097-0.054-0.143-0.084
			c2.092-3.108,3.404-7.435,4.928-10.813c2.393-5.311,4.83-10.59,6.973-16.008c4.079-10.31,8.188-20.611,12.354-30.887
			c4.128-10.178,8.353-20.323,12.775-30.377c0.344-0.781,0.696-1.559,1.049-2.338c2.079,3.033,4.543,5.742,7.031,8.467
			c3.882,4.25,7.467,8.799,10.918,13.398c3.135,4.18,5.963,8.598,9.234,12.67c1.784,2.222,4.637,5.482,7.504,6.507
			C271.869,132.733,270.921,134.906,270.007,137.107z"/>
	</g>
	<path d="M130.765,265.875c-17.602-5.1-33.816-12.88-47.941-24.67c-13.447-11.224-25.119-24.731-34.374-39.579
		c-19.505-31.292-28.843-73.448-12.2-107.924c0.092-0.19-0.164-0.271-0.254-0.101c-17.854,34.134-10.232,76.194,8.002,108.475
		c8.948,15.838,21.25,29.959,35.416,41.334c14.887,11.953,32.166,19.492,50.672,23.796
		C130.837,267.38,131.61,266.119,130.765,265.875z"/>
	<path d="M53.418,228.367c-10.353-13.851-20.239-27.918-27.524-43.66c-3.778-8.159-6.443-16.844-8.56-25.568
		c-2.459-10.134-1.994-20.502-2.002-30.841c0-0.069-0.096-0.039-0.098,0.019c-0.326,9.635-0.979,19.197,0.486,28.77
		c1.441,9.432,4.209,18.903,7.703,27.768c6.525,16.548,16.988,31.474,28.798,44.654C52.769,230.12,53.884,228.99,53.418,228.367z"/>
	<path d="M280.245,87.869c-3.895-12.778-9.723-25.325-17.249-36.368c-3.638-5.339-7.954-10.155-12.81-14.409
		c-5.578-4.885-12.307-8.08-18.471-12.162c-0.146-0.097-0.355,0.145-0.209,0.248c5.307,3.82,11.241,6.987,16.178,11.256
		c5.109,4.42,9.352,9.63,13.166,15.182c7.73,11.25,13.084,24.295,17.116,37.277c4.128,13.285,6.507,27.069,6.845,40.98
		c0.366,15.066-3.473,29.891-5.732,44.678c-0.159,1.047,1.18,0.996,1.414,0.118c3.837-14.265,6.436-29.143,6.753-43.929
		C287.556,116.346,284.417,101.561,280.245,87.869z"/>
	<path d="M294.411,136.133c-0.006-0.246-0.326-0.133-0.34,0.063c-0.616,8.632-2.012,17.091-3.826,25.542
		c-1.869,8.714-5.725,16.177-9.463,24.153c-0.401,0.854,0.607,1.396,1.188,0.706c5.404-6.442,8.086-15.505,9.943-23.56
		C293.956,154.186,294.693,145.196,294.411,136.133z"/>
	<path d="M119.366,15.731c-15.958,5.234-29.299,16.996-40.287,29.346C67.722,57.842,60.181,72.72,54.788,88.837
		c-5.678,16.974-7.583,34.556-6.221,52.411c0.693,9.1,2.688,18.063,4.994,26.869c2.236,8.531,6.457,16.513,10.412,24.342
		c0.606,1.196,2.323-0.297,1.828-1.387c-7.156-15.763-12.313-31.803-13.801-49.148c-1.449-16.904-0.529-34.443,4.952-50.592
		C62.415,75.236,68.95,60.564,79.849,47.34c10.613-12.877,23.719-25.453,39.566-31.427C119.53,15.869,119.5,15.686,119.366,15.731z"
		/>
	<g>
		<path style="opacity:0.5;fill:#807369;" d="M194.709,99.323c-2.577-3.327-4.98-6.679-7.309-10.183
			c-5.059-7.607-10.1-15.285-14.529-23.279c-4.211-7.595-8.754-15.103-12.52-22.926c-2.941-6.109-6.321-12.079-8.468-18.521
			c-0.13-0.395,0.145-0.773,0.485-0.938c-0.512-0.102-1.023-0.217-1.539-0.313c-3.255,0.717-6.506,1.459-9.754,2.284
			c-0.881,0.224-1.768,0.451-2.652,0.679c2.931-0.362,6.861-0.574,8.992-0.115c2.478,0.533,1.739,1.66,3.176,3.98
			c1.363,2.202,1.934,2.551,2.611,5.027c2.25,8.234,6.686,15.104,9.656,22.992c3.027,8.037,4.018,16.666,6.934,24.736
			c1.12,3.103,3.758,6.8,3.114,10.207c-0.53,2.801-3.358,4.361-5.103,6.361c-4.963,5.695-12.568,11.299-20.139,12.645
			c-3.912,0.695-7.089-2.107-10.315-3.797c-5.36-2.809-11.603-3.994-17.13-6.541c-1.998-0.921-3.189-2.027-4.05-3.331
			c0.495,2.28,1.011,4.553,1.579,6.821c1.352,0.44,2.591,1.074,3.857,1.836c2.977,1.793,6.151,3.221,9.127,5.012
			c3.299,1.984,6.662,3.87,9.979,5.824c2.082,1.225,3.856,2.768,5.772,4.215c4.196-1.241,8.412-2.43,12.583-3.828
			c3.059-1.057,6.16-1.986,9.178-3.152c3.922-1.516,7.796-3.226,11.826-4.434c4.221-1.266,8.456-2.422,12.698-3.609
			c2.032-0.57,4.186-1.234,6.341-1.414C197.495,103.607,196.116,101.141,194.709,99.323z"/>
		<path style="opacity:0.5;fill:#807369;" d="M225.015,96.811c-1-5.242-2.023-10.471-2.656-15.778
			c-0.201-1.68-0.367-3.364-0.519-5.05c-0.519,4.428,0.562,8.502,0.591,12.828c0.018,2.618-0.453,5.336-1.363,7.81
			c-1.176,3.197-1.813,3.883-5.031,3.267c-3.291-0.63-8.999-1.399-11.807-3.164c-2.053-1.291-2.789-3.574-4.315-5.314
			c-1.489-1.701-3.541-2.365-5.276-3.738c-1.869-1.48-3.4-3.341-4.793-5.263c-8.112-11.198-12.159-24.669-18.885-36.622
			c-1.18-2.098-2.757-3.943-3.924-6.033c-1.041-1.862-1.316-4.043-2.328-5.91c-0.82-1.513-2.792-2.908-2.951-4.707
			c-0.157-1.778,1.193-2.493,3.031-2.755c-3.869-0.993-7.743-1.943-11.643-2.745c0.036,0.053,0.075,0.097,0.099,0.168
			c2.34,7.072,6.086,13.875,9.415,20.532c3.686,7.372,7.899,14.615,11.981,21.778c4.322,7.587,9.134,14.859,13.832,22.215
			c2.266,3.55,4.625,6.936,7.129,10.32c1.23,1.662,2.495,3.311,3.607,5.057c0.075,0.119,0.624,0.984,1.172,1.814
			c0.707,0.011,1.412,0.083,2.11,0.244c7.93,1.838,16.023,2.605,24.089,3.444C226.017,105.079,225.793,100.896,225.015,96.811z"/>
		<path style="opacity:0.5;fill:#807369;" d="M122.747,124.766c-1.232-3.321-3.396-6.586-4.361-9.964
			c-0.845-2.954-1.878-5.867-2.742-8.821c-0.146-0.044-0.223-0.138-0.268-0.248c0.02,0.317,0.043,0.633,0.055,0.954
			c0.127,3.383-0.182,6.789,0,10.169c0.254,4.713,1.945,9.479,1.999,14.181c0.093,8.101-7.671,11.485-13.483,14.923
			c-6.545,3.871-13.23,9.826-20.922,11.043c-4.202,0.664-5.25-1.082-7.334-4.574c-3.527-5.906-5.734-12.441-9.248-18.297
			c-2.959-4.932-1.757-11.987,0.572-17.102c0.908-1.993,2.613-4.147,4.043-6.332c-2.449,2.966-4.828,5.973-7.634,8.644
			c-1.589,3.977-3.011,8.014-4.146,12.138c-0.972,3.53-1.066,6.148,0.709,9.401c1.15,2.109,2.304,4.227,3.286,6.422
			c2.054,4.586,3.519,9.383,5.698,13.912c2.354,4.891,4.672,9.811,6.863,14.775c1.882,4.264,3.523,8.362,6.166,12.223
			c1.424,2.08,2.645,4.411,4.234,6.369c0.109,0.134,0.225,0.254,0.338,0.377c5.41-19.051,16.088-35.404,27.953-50.99
			c3.255-4.275,7.778-8.035,10.518-12.645c0.184-0.313,0.377-0.586,0.576-0.842C124.263,128.844,123.486,126.756,122.747,124.766z"
			/>
		<path style="opacity:0.5;fill:#6B5E56;" d="M205.629,153.23c-1.462,2.746-2.295,6.139-4.544,8.432
			c-4.148,4.228-11.789,3.2-16.945,4.159c-4.834,0.899-10.034,3.069-14.594,5.009c-2.97,1.264-7.303,2.764-10.424,0.938
			c-1.285-0.752-1.613-2.122-2.402-3.257c-1.057-1.519-2.366-2.792-3.515-4.329c-0.833-1.114-1.771-2.521-2.761-3.801
			c1.691,2.46,3.355,4.939,5,7.439c2.52,3.829,5.337,7.454,7.206,11.654c7.577-0.514,15.168-0.88,22.765-1.002
			c3.865-0.063,7.684,0.058,11.51,0.505c1.082,0.126,1.961,0.325,2.729,0.72c0.002-0.023,0.006-0.045,0.01-0.068
			c0.008-0.064,0.107-0.076,0.114-0.005c0.007,0.063,0.013,0.11,0.018,0.157c0,0,0.007,0.004,0.009,0.006
			c-0.013-0.163-0.036-0.416-0.07-0.775c0.044-0.392,0.162-0.768,0.354-1.127l1.113-3.102c0.903-2.51,1.883-4.98,2.898-7.447
			c2.217-5.379,4.517-10.715,6.587-16.152c2.794-7.338,5.626-14.66,8.512-21.961c-0.944,1.449-1.771,3.006-2.593,4.776
			C213.44,140.816,209.189,146.543,205.629,153.23z"/>
		<path style="opacity:0.5;fill:#6B5E56;" d="M152.102,173.488c-0.466,1.57-1.883,2.657-2.4,4.203
			c-0.551,1.647-0.166,3.896-0.543,5.692c-1.585,7.563-2.73,15.502-4.324,22.882c-0.834,3.866,0.209,10.559-4.713,12.209
			c-6.411,2.148-11.02-5.402-15.211-8.395c-2.641-1.885-5.205-3.499-7.978-5.173c-3.134-1.892-6.672-2.97-9.614-5.23
			c-1.942-1.493-4.064-2.499-5.527-3.854c-1.096-1.015-2.23-2.312-3.382-3.383c-2.221-2.066-4.146-5.646-4.563-8.679
			c-0.148-1.079-0.066-2.233,0.078-3.389c-2.432,4.947-4.73,9.952-6.898,15.045c1.234,1.155,2.665,1.839,4.144,2.789
			c4.262,2.737,8.424,5.588,12.696,8.305c9.111,5.792,17.291,12.615,26.046,18.882c8.647,6.189,17.774,11.776,26.028,18.488
			c0.14-0.05,0.287-0.099,0.429-0.148c-0.261-1.866-0.587-3.716-0.445-5.625c0.185-2.505,0.443-5.003,0.64-7.509
			c0.405-5.122,1.438-10.138,2.34-15.195c1.109-6.227,1.893-12.436,2.415-18.736c0.239-2.867,0.331-5.738,0.376-8.614
			c0.041-2.536,0.544-4.618-0.582-7.045c-2.33-5.017-5.627-9.308-8.623-13.924c-1.288-1.983-2.605-3.968-3.955-5.931
			c0.391,1.433,0.832,2.853,1.35,4.103C151.052,168.078,153.074,170.217,152.102,173.488z"/>
		<path style="opacity:0.5;fill:#807369;" d="M241.499,60.332c0.042,0.205,0.082,0.411,0.098,0.627
			c0.092,1.268,0.219,3.119-0.297,4.303c-0.4,0.92-1.168,1.366-1.828,2.16c-1.344,1.617-2.263,3.672-3.112,5.568
			c-1.235,2.758-2.576,5.682-4.056,8.268c-0.703,1.229-2.359,5.836-4.21,5.52c-1.515-0.258-2.657-4.66-3.171-5.853
			c-0.514-1.194-1.07-2.407-1.635-3.618c0.125,1.104,0.258,2.205,0.414,3.304c0.79,5.556,2.164,11.031,2.936,16.572
			c0.486,3.495,0.783,7.039,1.236,10.546c3.104-7.57,6.279-15.119,9.756-22.513c2.387-5.079,4.764-10.331,7.875-15.014
			c0.842-1.269,2.502-4.892,4.4-5.554C247.024,63.361,244.243,61.884,241.499,60.332z"/>
		<path style="opacity:0.5;fill:#6B5E56;" d="M162.235,218.066c0.705-2.989,1.669-6.133,2.857-9.007
			c2.029-4.903,1.695-11.805,6.798-14.663c2.981-1.67,6.792-1.699,10.095-2.425c3.094-0.68,6.168-0.676,9.247-1.21
			c2.911-0.505,6.061-1.519,9.002-0.536c2.784,0.932,5.046,2.82,7.194,4.863c-1.666-2.409-3.299-4.838-4.826-7.311
			c-0.848-1.371-1.549-3.01-2.504-4.292c-1.084-1.453-2.02-1.556-3.823-1.916c-3.69-0.736-7.712-0.693-11.467-0.672
			c-3.985,0.023-7.96,0.13-11.945,0c-2.099-0.068-4.194-0.046-6.293-0.062c-0.325-0.003-2.251,0.071-3.354,0.01
			c0.025,0.061,0.053,0.119,0.076,0.18c0.732,1.971,0.318,3.402,0.281,5.422c-0.052,2.898-0.069,5.811-0.316,8.7
			c-0.477,5.585-1.004,11.101-2.018,16.62c-1.098,5.975-2.436,11.895-3.121,17.932c0.685-2.087,1.279-4.268,2.287-6.26
			C161.286,221.7,161.78,219.999,162.235,218.066z"/>
		<path style="opacity:0.5;fill:#6B5E56;" d="M238.753,180.408c-0.082-0.281-0.168-0.561-0.259-0.836
			c-1.386-4.225-3.179-8.307-5.315-12.204c-1.884-3.433-4.482-5.909-5.629-9.761c-2.055-6.909-0.33-13.936,0.129-20.91
			c0.408-6.213,4.426-11.973,7.594-17.235c2.277-3.785,5.949-12.806,11.49-12.205c1.885,0.204,2.638,1.067,4.123,2.237
			c1.934,1.523,4.139,2.226,6.139,3.575c0.158,0.106,0.375,0.25,0.613,0.407c-0.499-0.692-0.994-1.388-1.506-2.07
			c-3.451-4.6-7.036-9.148-10.918-13.398c-2.488-2.725-4.952-5.434-7.031-8.467c-0.353,0.779-0.705,1.557-1.049,2.338
			c-4.423,10.054-8.647,20.199-12.775,30.377c-4.166,10.275-8.275,20.576-12.354,30.887c-2.143,5.418-4.58,10.697-6.973,16.008
			c-1.523,3.379-2.836,7.705-4.928,10.813c0.046,0.03,0.098,0.052,0.143,0.084c3.685-0.022,7.83,1.953,11.211,3.006
			c5.093,1.587,9.89,3.692,14.725,5.923c4.596,2.121,9.48,4.145,13.365,7.461c1.594,1.361,3.143,2.776,4.778,4.091
			c0.8,0.642,2.079,1.909,3.33,2.617c0.618-1.347,0.987-2.896,1.438-4.232c0.102-0.302,0.189-0.606,0.287-0.908
			c-1.299-1.618-1.504-3.263-2.583-5.198c-1.351-2.422-3.306-3.732-5.114-5.633C239.936,185.337,239.458,182.817,238.753,180.408z"
			/>
		<path style="opacity:0.6;fill:#807369;" d="M112.097,68.512c-0.574-2.072-1.414-4.197-1.791-6.313
			c-0.168-0.947-0.021-1.848-0.236-2.805c-0.219-0.98-0.734-1.873-0.939-2.859c-0.221-1.055-0.408-1.981-0.779-3.018
			c-0.893-2.488-0.883-5.033-1.442-7.566c-1.019-4.615,3.085-5.935,6.432-7.564c4.2-2.044,8.202-4.549,12.563-6.229
			c1.746-0.671,3.586-0.965,5.353-1.602c0.974-0.352,1.839-0.949,2.872-1.138c1.869-0.342,4.323-1.328,6.193-1.018
			c-0.781,1.264-2.792,1.434-4.037,2.108c-4.188,2.27-8.984,4.062-12.715,7.063c-0.75,0.603-1.467,1.278-2.263,1.839
			c-2.491,1.754-5.479,2.412-6.94,5.343c-1.024,2.056-1.414,4.429-1.67,6.688c-0.563,4.977-0.302,10.024,0.021,15.008
			c0.083,1.275,0.462,2.954,0.121,4.184C112.448,70.019,112.293,69.218,112.097,68.512z"/>
		<path style="opacity:0.6;fill:#807369;" d="M183.261,33.295c3.594,1.028,6.982,2.461,10.492,3.654
			c6.316,2.148,12.73,4.324,18.424,7.854c1.296,0.804,3.707,1.796,4.6,3.07c1.313,1.878,1.154,5.111,1.678,7.292
			c1.046,4.354,1.229,8.775,1.643,13.146c0.309,3.253,0.334,6.774,0.139,10.065c-1.406-1.733-2.357-5.734-2.76-7.903
			c-0.422-2.285-0.275-4.729-0.712-6.999c-0.418-2.175-1.042-4.455-1.657-6.519c-1.517-5.082-6.233-7.373-10.517-9.898
			c-3.944-2.326-8.624-4.053-12.827-5.932c-3.052-1.363-5.543-3.689-8.734-4.783c-2.857-0.979-5.363-2.133-8.102-3.419
			c-1.798-0.844-4.104-1.677-4.975-3.468c2.324-0.359,4.27,1.289,6.275,2.072C178.462,32.402,180.958,32.637,183.261,33.295z"/>
		<path style="opacity:0.6;fill:#807369;" d="M94.014,90.475c1.395-1.265,2.945-2.274,4.492-3.338
			c1.425-0.979,2.882-2.147,4.721-1.964c1.337,0.134,2.131,0.927,2.712,2.079c0.954,1.891,1.791,3.828,2.788,5.703
			c0.938,1.763,0.735,4.038,1.37,5.973c1.326,4.037,2.779,7.842,3.02,12.067c1.425,0.358,1.073-5.057,0.855-5.866
			c-0.617-2.293-1.191-4.297-1.494-6.666c-0.394-3.098-1.641-6.047-2.183-9.146c-0.38-2.173-0.86-4.373-1.229-6.532
			c-0.177-1.038-0.08-4.369-1.249-4.998c-2.057-1.106-4.493,2.627-5.697,3.789c-3.293,3.179-7.179,5.663-10.561,8.744
			c-2.176,1.982-4.229,4.094-6.226,6.253c-0.987,1.068-1.944,2.165-2.931,3.232c-0.374,0.404-0.887,0.563-1.301,0.94
			c-0.457,0.416-0.802,0.939-1.12,1.464c-0.229,0.378-0.794,0.974-0.809,1.427c0.917-0.119,1.567-0.914,2.235-1.445
			c1.035-0.823,2.395-1.082,3.432-1.9c0.685-0.541,1.102-1.279,1.586-1.986c0.484-0.708,1.221-1.161,1.721-1.849
			c1.117-1.534,2.502-2.782,3.867-4.089C92.663,91.747,93.327,91.098,94.014,90.475z"/>
		<path style="opacity:0.4;fill:#8E8179;" d="M107.114,64.538c-0.795-4.212-1.472-8.46-2.188-12.687
			c-0.453-2.678-0.363-5.406-0.482-8.1c-0.35,0.568-0.7,1.134-1.065,1.668c-0.848,1.238-1.683,2.488-2.522,3.732
			c1.43,0.264,0.916,2.976,0.988,4.088c0.182,2.803,0.725,5.216,1.877,7.799c0.877,1.965,1.375,3.738,1.375,5.875
			c0,1.771-0.029,2.678-1.393,3.949c-3.004,2.803-7.045,4.357-10.045,7.17c-2.85,2.672-4.807,5.896-7.28,8.881
			c-1.538,1.854-2.956,2.127-5.231,2.719c-1.73,0.451-3.385,0.588-2.796-2.016c0.288-1.274,1.24-2.275,1.558-3.604
			c0.041-0.174,0.084-0.348,0.126-0.521c-2.765,5.543-5.327,11.172-8.015,16.814c-2.477,5.203-4.988,10.441-7.251,15.775
			c0.915-1.071,1.88-2.1,2.835-3.154c1.618-1.789,2.928-3.828,4.547-5.627c3.92-4.36,8.174-8.397,12.227-12.633
			c7.689-8.038,15.542-16.057,24.14-23.133C108.03,69.207,107.557,66.877,107.114,64.538z"/>
		<path style="opacity:0.6;fill:#807369;" d="M148.112,125.818c0.914-0.295,1.824-0.605,2.724-0.959
			c1.604-0.631,3.128-1.29,4.808-1.728c5.02-1.308,9.657-3.432,14.543-5.167c5.188-1.842,10.49-3.355,15.855-4.578
			c6.713-1.529,13.038-2.704,19.894-1.579c3.677,0.604,7.367,0.997,10.977,1.959c2.203,0.588,5.714,0.933,7.345,2.467
			c-2.321,0.309-4.38-0.284-6.685-0.305c-2.49-0.022-4.947-0.148-7.439-0.163c-3.465-0.021-6.875-0.521-10.361-0.337
			c-1.234,0.065-2.244,0.335-3.453,0.667c-2.275,0.626-4.582,0.604-6.865,1.141c-8.626,2.027-17.191,4.873-25.814,6.859
			c-3.158,0.727-6.379,1.529-9.463,2.259c-2.951,0.698-6.114,0.974-8.934,2.151c-1.818,0.76-3.637,1.74-5.572,2.166
			c-1.24,0.272-2.893,0.047-1.259-1.229c1.185-0.927,2.972-1.418,4.372-1.917C144.552,126.896,146.341,126.389,148.112,125.818z"/>
		<path style="opacity:0.3;fill:#807369;" d="M127.736,150.386c-2.788-0.487-5.88,3.255-8.421,4.832
			c-3.222,1.999-5.209,4.734-7.618,7.487c-1.101,1.26-2.59,2.447-3.87,3.537c-0.186,0.156-3.92,2.508-3.898,1.455
			c0.021-1.166,0.456-2.35,0.986-3.379c1.584-3.072,4.102-4.773,6.049-7.509c2.502-3.516,4.729-7.22,7.305-10.685
			c1.561-2.1,3.777-3.594,5.5-5.572c1.407-1.615,1.684-3.354,3.834-1.961c1.708,1.105,3.625,3.523,4.865,5.069
			c2.205,2.749,4.119,6.18,5.986,9.161c2.956,4.721,6.535,8.819,9.359,13.605c0.482,0.816,1.518,1.984,1.258,2.979
			c-1.584,0.059-4.887-2.74-6.064-3.657c-4.646-3.618-9.514-8.026-12.535-13.097C129.619,151.223,128.695,150.554,127.736,150.386z"
			/>
	</g>
</g>
</svg>
