<?xml version="1.0" encoding="utf-8"?>
<!-- Generator: Adobe Illustrator 27.5.0, SVG Export Plug-In . SVG Version: 6.00 Build 0)  -->
<svg version="1.1" id="Capa_1" xmlns="http://www.w3.org/2000/svg" xmlns:xlink="http://www.w3.org/1999/xlink" x="0px" y="0px"
	 viewBox="0 0 2122 2122" style="enable-background:new 0 0 2122 2122;" xml:space="preserve">
<g>
	<path style="fill:#91A9D8;" d="M809.446,1224.667c-10.28-20.243-26.041-41.598-39.552-63.893
		c-117.091,138.042-211.927,310.679-281.676,467.488c-29.023,65.325-53.091,133.077-68.424,202.938
		c-7.445,34.007-43.035,158.772,29.213,114.879l0.176-0.088c60.019-36.619,103.805-98.212,150.869-150.353
		c52.96-58.641,105.871-117.257,158.83-175.893c40.326-44.662,80.663-89.359,120.989-134.017
		c-4.867-24.068-7.191-48.867-10.904-73.232C859.093,1347.547,839.22,1283.328,809.446,1224.667z"/>
	<path style="fill:#7594C6;" d="M975.643,1223.386c-11.24,2.943-22.611,3.235-33.481-0.969
		c-13.179-5.077-25.174-13.613-36.312-24.151c-32.526-30.772-41.403-77.252-64.75-114.027
		c-24.57,23.951-48.321,49.568-71.206,76.536c13.51,22.295,29.271,43.649,39.552,63.893c29.773,58.661,49.647,122.879,59.523,187.83
		c3.712,24.365,6.036,49.164,10.904,73.232c54.095-59.907,108.19-119.815,162.28-179.722
		c-12.365-15.099-24.736-30.198-37.101-45.296C995.77,1249.374,985.66,1236.819,975.643,1223.386z"/>
	<path style="fill:#C11833;" d="M1767.093,400.834c-25.843-94.243-104.968-163.191-190.58-203.752
		c-73.838-35.023-162.443-38.266-237.029-8.731c-86.51,34.275-150.12,109.06-185.392,192.676
		c-35.323,83.616-44.952,175.813-46.698,266.863c-0.698,38.914-0.25,78.927-14.668,114.897
		c-8.581,21.403-21.703,39.812-37.168,56.725c41.009,46.298,97.436,83.816,126.821,138.396c8.033,14.867,13.969,31.83,10.626,48.493
		c-1.446,7.134-4.49,13.77-8.231,20.106c9.43,7.833,18.509,16.065,27.29,24.446c14.669,14.069,28.987,28.787,42.956,44.053
		c30.682-38.964,122.78-118.539,163.691-138.595C1611.885,861.721,1832.999,641.256,1767.093,400.834z M1220.346,601.293
		c-8.233-76.532,9.129-160.198,56.126-220.315c59.169-75.484,167.033-96.438,254.191-61.465
		c112.951,45.25,145.33,168.729,102.175,277.141c-26.692,67.003-83.566,135.602-153.163,159.898
		C1356.595,799.557,1232.019,709.406,1220.346,601.293z"/>
	<path style="fill:#B5C5E7;" d="M1575.292,1648.964c-62.105-159.985-148.506-336.993-258.806-480.521
		c-14.568,21.617-31.338,42.183-42.587,61.91c-32.57,57.154-55.512,120.346-68.511,184.74c-4.882,24.156-8.4,48.818-14.421,72.619
		c38.129,46.558,76.263,93.145,114.387,139.697c50.07,61.126,100.098,122.222,150.168,183.347
		c44.497,54.349,85.262,117.983,143.44,157.457l0.171,0.092c70.051,47.328,40.516-79.011,34.723-113.335
		C1621.908,1784.448,1601.133,1715.619,1575.292,1648.964z"/>
	<path style="fill:#91A9D8;" d="M1273.899,1230.353c11.25-19.727,28.019-40.292,42.587-61.91
		c-19.718-25.642-40.205-50.192-61.447-73.413c-13.997-15.294-28.307-30.022-42.971-44.051
		c-8.794-8.412-17.886-16.619-27.279-24.453c-2.543,4.358-5.389,8.587-8.273,12.726c-42.168,60.392-94.388,114.375-153.997,159.135
		c-13.929,10.456-30.256,20.648-46.874,24.999c10.017,13.432,20.127,25.988,29.408,37.325
		c12.365,15.098,24.736,30.197,37.101,45.296c49.608,60.57,99.211,121.14,148.814,181.705c6.022-23.801,9.54-48.463,14.421-72.619
		C1218.386,1350.699,1241.329,1287.508,1273.899,1230.353z"/>
	<path style="fill:#E51C37;" d="M1182.379,957.909c-29.385-54.58-85.811-92.098-126.821-138.396
		c-17.412-19.657-32.03-40.91-40.612-65.755c-12.672-36.57-10.277-76.532-9.129-115.446c2.693-91.05-2.495-183.596-33.726-268.809
		c-31.231-85.213-91.2-162.992-175.913-201.357c-73.09-33.127-161.695-34.175-237.179-2.794
		c-87.458,36.42-169.827,101.527-200.21,194.373C281.41,596.703,491.647,827.546,680.033,931.468
		c41.06,22.65,133.207,110.856,159.15,149.771c0.7,0.948,1.298,1.996,1.897,2.993c23.348,36.769,32.229,83.267,64.757,114.049
		c11.175,10.527,23.149,19.058,36.321,24.147c10.876,4.191,22.251,3.891,33.476,0.948c16.614-4.34,32.977-14.518,46.896-24.995
		c59.62-44.752,111.805-98.733,153.962-159.15c2.893-4.141,5.737-8.332,8.282-12.722c3.742-6.336,6.786-12.971,8.231-20.106
		C1196.348,989.739,1190.412,972.777,1182.379,957.909z M895.26,586.326C878.448,693.74,749.63,777.755,628.746,728.913
		c-68.299-27.639-121.832-98.883-145.231-167.133c-37.916-110.357,0.35-232.14,115.347-271.902
		c88.755-30.683,195.52-4.59,250.949,73.688C893.913,425.879,907.184,510.293,895.26,586.326z"/>
	<path style="fill:#577FBD;" d="M922.956,1007.813c11.435,39.6,52.804,62.429,92.404,50.994
		c39.601-11.435,62.431-52.806,50.991-92.404c-11.435-39.6-52.804-62.431-92.404-50.993
		C934.347,926.843,911.517,968.215,922.956,1007.813z"/>
	<path style="fill:#1A1A1A;" d="M657.938,840.327c-79.166-56.312-152.287-111.383-210.406-190.136
		c-3.693-5.004-11.493-0.762-8.487,4.96c40.614,77.262,119.756,131.206,189.023,180.541c78.48,55.896,153.696,110.991,209.88,190.49
		c2.256,3.196,7.084,0.467,5.281-3.087C803.527,944.736,727.77,890.003,657.938,840.327z"/>
	<path style="fill:#1A1A1A;" d="M707.8,196.155c29.408,11.583,60.511,13.805,89.666,28.192
		c27.036,13.345,51.727,31.513,72.517,53.338c44.687,46.913,68.399,109.342,75.176,173.093c0.248,2.331,3.616,2.434,3.708,0
		c2.607-67.566-23.83-132.785-70.241-181.737c-23.274-24.548-51.411-44.675-82.095-58.913
		c-26.085-12.109-59.522-26.029-88.73-21.839C703.342,188.927,704.569,194.883,707.8,196.155z"/>
	<path style="fill:#1A1A1A;" d="M1550.848,826.035c-2.67,1.917-0.36,6.132,2.621,4.482
		c68.049-37.678,119.488-100.475,150.933-171.081c29.578-66.414,46.358-150.618,25.534-221.834
		c-1.198-4.095-7.868-3.476-7.649,1.035c3.65,75.198,0.541,144.611-29.559,214.962
		C1662.702,723.777,1612.587,781.706,1550.848,826.035z"/>
	<path style="fill:#1A1A1A;" d="M1264.276,307.039c26.748-15.486,48.555-36.92,76.901-50.38
		c31.722-15.057,66.441-23.52,101.539-24.643c68.268-2.18,129.198,24.87,182.406,65.715c2.324,1.786,4.902-1.944,3.031-3.929
		c-47.674-50.628-120.468-76.704-189.461-74.504c-59.951,1.912-146.743,27.659-179.362,82.794
		C1257.475,305.222,1261.158,308.845,1264.276,307.039z"/>
	<path style="fill:#1A1A1A;" d="M1111.126,929.06c13.559,15.695,53.34,47.851,43.586,70.926
		c-4.668,11.043-18.913,22.606-26.845,31.637c-8.365,9.532-16.736,19.067-25.106,28.599c-14.914,16.992-29.778,33.941-42.134,52.919
		c-1.949,2.996,2.222,5.637,4.662,3.596c25.481-21.335,46.777-47.396,68.896-72.081c12.673-14.139,37.306-33.252,36.745-54.753
		c-0.482-18.575-21.817-35.406-32.735-47.856c-20.575-23.469-39.854-50.848-64.745-69.876c-2.572-1.966-5.554,1.737-4.185,4.185
		C1080.208,895.932,1096.54,912.166,1111.126,929.06z"/>
	<path style="fill:#1A1A1A;" d="M740.964,1264.093c-88.238,96.964-155.166,210.533-210.728,328.827
		c-2.562,5.457,5.462,10.266,8.166,4.775c57.578-117.004,131.152-224.448,207.805-329.559
		C748.443,1265.072,743.493,1261.311,740.964,1264.093z"/>
	<path style="fill:#1A1A1A;" d="M508.945,1653.617c-21.92,34.406-38.913,73.028-47.766,112.969c-0.385,1.735,2.27,3.113,3.05,1.286
		c15.995-37.51,32.409-74.216,51.284-110.421C517.773,1653.11,511.581,1649.476,508.945,1653.617z"/>
	<path style="fill:#1A1A1A;" d="M1435.019,1424.239c-3.727-6.002-12.677-0.726-9.447,5.525
		c34.397,66.46,69.184,131.43,96.853,201.184c26.655,67.206,44.424,136.706,67.678,204.94c1.486,4.356,7.513,2.558,6.797-1.875
		c-11.858-73.17-39.508-145.846-67.186-214.348C1502.819,1553.111,1472.958,1485.31,1435.019,1424.239z"/>
	<path style="fill:#1A1A1A;" d="M1402.649,1370.197c1.213,2.07,4.287,0.243,3.201-1.871c-9.301-18.11-18.212-36.434-27.742-54.421
		c-8.2-15.479-15.391-33.525-27.693-46.134c-1.267-1.296-3.342,0.044-2.948,1.715c4.053,17.165,15.488,32.965,24.166,48.205
		C1381.689,1335.347,1392.364,1352.667,1402.649,1370.197z"/>
	<path style="fill:#FFFFFF;" d="M455.035,359.151c24.702-54.441,64.623-92.158,105.364-134.219
		c10.49-10.833-2.689-24.971-15.118-19.595c-58.46,25.298-101.983,85.942-125.798,143.089
		c-27.016,64.83-37.349,149.724-12.112,216.911c6.996,18.633,31.835,11.072,29.242-8.061
		C427.264,488.218,425.432,424.391,455.035,359.151z"/>
	<path style="fill:#FFFFFF;" d="M796.789,1507.303c-47.98,43.269-86.656,100.677-127.225,150.821
		c-41.466,51.249-82.943,102.48-123.912,154.129c-7.103,8.95,5.262,21.798,12.774,12.775
		c43.192-51.874,85.837-104.181,128.526-156.473c40.282-49.344,87.829-98.271,119.975-153.432
		C810.708,1508.633,802.153,1502.47,796.789,1507.303z"/>
	<path style="fill:#FFFFFF;" d="M1487.521,1774.669c-23.05-31.488-46.845-62.509-70.909-93.232
		c-25.457-32.502-51.366-64.657-77.437-96.662c-14.041-17.237-28.161-34.407-42.358-51.517
		c-11.177-13.467-20.278-27.703-37.218-33.715c-4.317-1.53-7.381,2.996-6.748,6.748c3.035,17.842,16.428,29.671,27.688,43.245
		c12.17,14.665,24.283,29.374,36.336,44.131c27.128,33.203,53.914,66.674,80.511,100.302c25.578,32.341,50.976,64.842,76.735,97.037
		c23.757,29.681,46.27,68.658,76.551,91.717c2.948,2.246,7.552-1.491,6.319-4.857
		C1543.491,1840.964,1510.644,1806.255,1487.521,1774.669z"/>
</g>
</svg>
